<?xml version="1.0" encoding="UTF-8" standalone="no"?>
<svg width="106px" height="121px" viewBox="0 0 106 121" version="1.1" xmlns="http://www.w3.org/2000/svg" xmlns:xlink="http://www.w3.org/1999/xlink" xmlns:sketch="http://www.bohemiancoding.com/sketch/ns">
    <!-- Generator: Sketch 3.3.2 (12043) - http://www.bohemiancoding.com/sketch -->
    <title>caesdo-logo</title>
    <desc>Created with Sketch.</desc>
    <defs></defs>
    <g id="Page-1" stroke="none" stroke-width="1" fill="none" fill-rule="evenodd" sketch:type="MSPage">
        <g id="Desktop-HD" sketch:type="MSArtboardGroup" transform="translate(-451.000000, -47.000000)" fill="#004B85">
            <g id="caesdo-logo" sketch:type="MSLayerGroup" transform="translate(451.000000, 47.000000)">
                <path d="M102.687905,28.2364556 C96.5307141,24.6568211 90.3655581,21.0771865 84.20898,17.497552 C74.5421477,11.8762728 64.8710263,6.25622208 55.2041939,0.63617132 C53.7771766,-0.194244924 51.9904945,-0.194244924 50.5634771,0.63617132 C37.4158008,8.28005457 24.2509685,15.9239378 11.1039049,23.5684353 C7.38287598,25.7316942 0.187130317,28.1879327 0.187130317,33.2521206 L0.187130317,54.7305419 L0.187130317,82.4039175 L0.187130317,88.3740698 C0.187130317,91.3923135 2.57917656,92.4899124 4.75003205,93.7515063 C19.1764482,102.139202 33.6108297,110.526897 48.0366332,118.914593 C48.8754425,119.402278 49.7185407,119.889963 50.55735,120.377648 C51.9843673,121.207451 53.7710494,121.207451 55.1980667,120.377648 C71.2206101,111.062491 87.2431534,101.674242 103.265697,92.3584708 C104.474587,91.6551967 105.135708,90.6693845 105.380795,89.6141662 C105.502726,89.1793033 105.574414,88.7026739 105.574414,88.1781358 L105.574414,42.5881612 C105.574414,38.2929683 107.043708,30.7688566 102.687905,28.2364556 L102.687905,28.2364556 Z M9.37788176,85.6414353 L9.37788176,35.0990596 C23.8753731,26.7009226 38.3838933,18.5533845 52.8807719,9.73758249 C67.3776505,18.5533845 81.8861708,26.7009226 96.3836621,35.0990596 L96.3836621,85.6322221 C81.8824945,94.0598414 67.3813268,102.451222 52.8801592,110.794694 C38.3832806,102.453679 23.8753731,94.0659835 9.37788176,85.6414353 L9.37788176,85.6414353 Z" id="Fill-23" sketch:type="MSShapeGroup"></path>
                <path d="M25.0085872,51.2504966 C40.1990612,60.9200549 55.3901479,70.591456 70.5818473,80.2616286 C77.2629109,84.5144407 83.9237548,74.2011869 77.2549456,69.9557453 C62.0644716,60.2861869 46.8733849,50.6154001 31.6816855,40.9458417 C25.0006219,36.6918011 18.3397779,47.0056692 25.0085872,51.2504966" id="Fill-24" sketch:type="MSShapeGroup"></path>
            </g>
        </g>
    </g>
</svg>